# xmcd CD database file
#
# Track frame offsets:
#	150
#	29803
#	59889
#	77304
#	102419
#	114387
#	147426
#	172599
#	193095
#
# Disc length: 3019 seconds
#
# Revision: 0
# Processed by: cddbd v1.4PL0 Copyright (c) Steve Scherf et al.
# Submitted via: CDex 1.50Beta7
#
DISCID=7a0bc909
DTITLE=Martail Solal - Just Friends
DYEAR=1900
DGENRE=Jazz
TTITLE0=Just Friends
TTITLE1=Coming Yesterday
TTITLE2=Willow weep for me
TTITLE3=You stepped out of a dream
TTITLE4=Hommage a Frederic Chopin
TTITLE5=Sapristi
TTITLE6=Summertime
TTITLE7=Sacrebleu
TTITLE8=I'm getting sentimental over you
EXTD=
EXTT0=
EXTT1=
EXTT2=
EXTT3=
EXTT4=
EXTT5=
EXTT6=
EXTT7=
EXTT8=
PLAYORDER=
